<svg width="261" height="341" viewBox="0 0 261 341" fill="none" xmlns="http://www.w3.org/2000/svg">
<rect x="1" y="1" width="259" height="339" rx="7" stroke="#09221F" stroke-width="2"/>
<path d="M98.492 197.964C101.393 195.66 102.716 194.593 102.46 194.764C110.823 187.852 117.393 182.177 122.172 177.74C127.036 173.303 131.132 168.652 134.46 163.788C137.788 158.924 139.452 154.188 139.452 149.58C139.452 146.081 138.641 143.351 137.02 141.388C135.399 139.425 132.967 138.444 129.724 138.444C126.481 138.444 123.921 139.681 122.044 142.156C120.252 144.545 119.356 147.959 119.356 152.396H98.236C98.4067 145.143 99.9427 139.084 102.844 134.22C105.831 129.356 109.713 125.772 114.492 123.468C119.356 121.164 124.732 120.012 130.62 120.012C140.775 120.012 148.412 122.615 153.532 127.82C158.737 133.025 161.34 139.809 161.34 148.172C161.34 157.303 158.225 165.793 151.996 173.644C145.767 181.409 137.831 189.004 128.188 196.428H162.748V214.22H98.492V197.964Z" fill="#09221F"/>
</svg>
