<svg width="200" height="200" viewBox="0 0 200 200" fill="none" xmlns="http://www.w3.org/2000/svg">
<rect x="1" y="1" width="198" height="198" rx="99" stroke="#09221F" stroke-width="2"/>
<path d="M67.528 77.928C67.8693 68.7973 70.856 61.7573 76.488 56.808C82.12 51.8587 89.7573 49.384 99.4 49.384C105.8 49.384 111.261 50.4933 115.784 52.712C120.392 54.9307 123.848 57.96 126.152 61.8C128.541 65.64 129.736 69.9493 129.736 74.728C129.736 80.36 128.328 84.968 125.512 88.552C122.696 92.0507 119.411 94.44 115.656 95.72V96.232C120.52 97.8533 124.36 100.541 127.176 104.296C129.992 108.051 131.4 112.872 131.4 118.76C131.4 124.051 130.163 128.744 127.688 132.84C125.299 136.851 121.757 140.008 117.064 142.312C112.456 144.616 106.952 145.768 100.552 145.768C90.312 145.768 82.12 143.251 75.976 138.216C69.9173 133.181 66.7173 125.587 66.376 115.432H87.624C87.7093 119.187 88.776 122.173 90.824 124.392C92.872 126.525 95.8587 127.592 99.784 127.592C103.112 127.592 105.672 126.653 107.464 124.776C109.341 122.813 110.28 120.253 110.28 117.096C110.28 113 108.957 110.056 106.312 108.264C103.752 106.387 99.6133 105.448 93.896 105.448H89.8V87.656H93.896C98.248 87.656 101.747 86.9307 104.392 85.48C107.123 83.944 108.488 81.256 108.488 77.416C108.488 74.344 107.635 71.9547 105.928 70.248C104.221 68.5413 101.875 67.688 98.888 67.688C95.6453 67.688 93.2133 68.6693 91.592 70.632C90.056 72.5947 89.16 75.0267 88.904 77.928H67.528Z" fill="#09221F"/>
</svg>
