<svg width="176" height="97" viewBox="0 0 176 97" fill="none" xmlns="http://www.w3.org/2000/svg">
<path d="M0.362803 90.7707C-0.0628434 90.4188 -0.122615 89.7884 0.229299 89.3628L5.96407 82.4265C6.31599 82.0008 6.94632 81.9411 7.37197 82.293C7.79762 82.6449 7.85739 83.2752 7.50547 83.7009L2.4079 89.8665L8.57351 94.9641C8.99915 95.316 9.05892 95.9463 8.70701 96.372C8.3551 96.7976 7.72476 96.8574 7.29911 96.5055L0.362803 90.7707ZM170.315 1.00385L170.288 0.00422557C171.858 -0.0385199 173.207 0.241726 174.221 0.942889C175.271 1.66894 175.834 2.75846 175.968 4.04385C176.098 5.29453 175.826 6.73327 175.25 8.28674C174.671 9.85033 173.761 11.5925 172.544 13.4746C167.689 20.9844 157.717 31.0742 143.064 41.5167C113.731 62.4223 65.4265 84.8952 1.0944 90.9955L1 90L0.905598 89.0045C64.8748 82.9386 112.846 60.597 141.904 39.888C156.447 29.5231 166.199 19.6054 170.865 12.3887C172.028 10.5893 172.861 8.97985 173.375 7.59195C173.893 6.19392 174.065 5.08125 173.979 4.2506C173.896 3.45467 173.583 2.93295 173.084 2.58788C172.549 2.21791 171.677 1.96713 170.342 2.00348L170.315 1.00385Z" fill="black"/>
</svg>
