<svg width="852" height="558" viewBox="0 0 852 558" fill="none" xmlns="http://www.w3.org/2000/svg">
<path d="M326.26 6.43998V113.3H181.18V554H47.8V113.3H-97.28V6.43998H326.26ZM694.28 179.6C684.4 161.4 670.1 147.62 651.38 138.26C633.18 128.38 611.6 123.44 586.64 123.44C543.48 123.44 508.9 137.74 482.9 166.34C456.9 194.42 443.9 232.12 443.9 279.44C443.9 329.88 457.42 369.4 484.46 398C512.02 426.08 549.72 440.12 597.56 440.12C630.32 440.12 657.88 431.8 680.24 415.16C703.12 398.52 719.76 374.6 730.16 343.4H560.9V245.12H851.06V369.14C841.18 402.42 824.28 433.36 800.36 461.96C776.96 490.56 747.06 513.7 710.66 531.38C674.26 549.06 633.18 557.9 587.42 557.9C533.34 557.9 484.98 546.2 442.34 522.8C400.22 498.88 367.2 465.86 343.28 423.74C319.88 381.62 308.18 333.52 308.18 279.44C308.18 225.36 319.88 177.26 343.28 135.14C367.2 92.5 400.22 59.48 442.34 36.08C484.46 12.16 532.56 0.19997 586.64 0.19997C652.16 0.19997 707.28 16.06 752 47.78C797.24 79.5 827.14 123.44 841.7 179.6H694.28Z" fill="url(#paint0_linear_198_11)"/>
<defs>
<linearGradient id="paint0_linear_198_11" x1="-116" y1="279" x2="877" y2="279" gradientUnits="userSpaceOnUse">
<stop offset="0.668269"/>
<stop offset="1" stop-color="#24887C" stop-opacity="0"/>
</linearGradient>
</defs>
</svg>
