<svg width="950" height="558" viewBox="0 0 950 558" fill="none" xmlns="http://www.w3.org/2000/svg">
<path d="M424.26 6.43998V113.3H279.18V554H145.8V113.3H0.72V6.43998H424.26ZM792.28 179.6C782.4 161.4 768.1 147.62 749.38 138.26C731.18 128.38 709.6 123.44 684.64 123.44C641.48 123.44 606.9 137.74 580.9 166.34C554.9 194.42 541.9 232.12 541.9 279.44C541.9 329.88 555.42 369.4 582.46 398C610.02 426.08 647.72 440.12 695.56 440.12C728.32 440.12 755.88 431.8 778.24 415.16C801.12 398.52 817.76 374.6 828.16 343.4H658.9V245.12H949.06V369.14C939.18 402.42 922.28 433.36 898.36 461.96C874.96 490.56 845.06 513.7 808.66 531.38C772.26 549.06 731.18 557.9 685.42 557.9C631.34 557.9 582.98 546.2 540.34 522.8C498.22 498.88 465.2 465.86 441.28 423.74C417.88 381.62 406.18 333.52 406.18 279.44C406.18 225.36 417.88 177.26 441.28 135.14C465.2 92.5 498.22 59.48 540.34 36.08C582.46 12.16 630.56 0.19997 684.64 0.19997C750.16 0.19997 805.28 16.06 850 47.78C895.24 79.5 925.14 123.44 939.7 179.6H792.28Z" fill="url(#paint0_linear_321_21)"/>
<defs>
<linearGradient id="paint0_linear_321_21" x1="-18" y1="279" x2="975" y2="279" gradientUnits="userSpaceOnUse">
<stop offset="0.668269"/>
<stop offset="1" stop-color="#24887C" stop-opacity="0"/>
</linearGradient>
</defs>
</svg>
