<svg width="82" height="191" viewBox="0 0 82 191" fill="none" xmlns="http://www.w3.org/2000/svg">
<path d="M81.0979 189.995C81.6476 189.941 82.0493 189.452 81.9952 188.902L81.1138 179.945C81.0597 179.396 80.5703 178.994 80.0206 179.048C79.471 179.102 79.0693 179.592 79.1234 180.141L79.9069 188.103L71.9453 188.886C71.3957 188.94 70.994 189.43 71.0481 189.979C71.1022 190.529 71.5916 190.931 72.1412 190.877L81.0979 189.995ZM39.4987 1.01923L39.7272 0.0456759C39.2968 -0.0553151 38.8243 0.029184 38.4408 0.131526C38.018 0.244349 37.5301 0.428724 36.9956 0.670634C35.9233 1.15586 34.5804 1.91037 33.0536 2.91914C29.9961 4.93929 26.1384 8.02068 22.1482 12.1271C14.1685 20.3392 5.61153 32.6999 1.89826 48.9433C-5.54984 81.5245 6.57554 129.205 80.3655 189.773L81 189L81.6345 188.227C8.1165 127.882 -3.35643 80.9041 3.84797 49.389C7.46095 33.5843 15.793 21.5373 23.5826 13.5209C27.477 9.5131 31.2241 6.52503 34.1561 4.58781C35.6241 3.6179 36.8721 2.92174 37.8201 2.49275C38.2957 2.27755 38.6753 2.13892 38.9564 2.06391C39.2768 1.97841 39.3446 2.01023 39.2702 1.99278L39.4987 1.01923Z" fill="black"/>
</svg>
