<svg width="25" height="25" viewBox="0 0 25 25" fill="none" xmlns="http://www.w3.org/2000/svg">
<path d="M20.1792 11.9155C20.0747 12.0204 19.9505 12.1036 19.8137 12.1604C19.677 12.2172 19.5304 12.2464 19.3823 12.2464C19.2343 12.2464 19.0876 12.2172 18.9509 12.1604C18.8142 12.1036 18.69 12.0204 18.5854 11.9155L13.7583 7.08836V20.8696C13.7583 21.168 13.6397 21.4541 13.4288 21.6651C13.2178 21.8761 12.9316 21.9946 12.6333 21.9946C12.3349 21.9946 12.0487 21.8761 11.8378 21.6651C11.6268 21.4541 11.5083 21.168 11.5083 20.8696V7.08836L6.6792 11.9155C6.46785 12.1269 6.18121 12.2456 5.88232 12.2456C5.58344 12.2456 5.29679 12.1269 5.08545 11.9155C4.8741 11.7042 4.75537 11.4176 4.75537 11.1187C4.75537 10.8198 4.8741 10.5331 5.08545 10.3218L11.8354 3.57179C11.94 3.46691 12.0642 3.3837 12.2009 3.32692C12.3376 3.27013 12.4843 3.24091 12.6323 3.24091C12.7804 3.24091 12.927 3.27013 13.0637 3.32692C13.2005 3.3837 13.3247 3.46691 13.4292 3.57179L20.1792 10.3218C20.2841 10.4263 20.3673 10.5505 20.4241 10.6872C20.4809 10.824 20.5101 10.9706 20.5101 11.1187C20.5101 11.2667 20.4809 11.4133 20.4241 11.5501C20.3673 11.6868 20.2841 11.811 20.1792 11.9155Z" fill="#1E1E1E"/>
</svg>
