<svg width="32" height="24" viewBox="0 0 32 24" fill="none" xmlns="http://www.w3.org/2000/svg">
<path d="M18.7012 6.83874L7.50125 17.8387C7.31421 18.0227 7.06236 18.1258 6.8 18.1258C6.53764 18.1258 6.28579 18.0227 6.09875 17.8387L1.29875 13.125C1.2051 13.0329 1.1305 12.9233 1.07923 12.8023C1.02795 12.6814 1.00099 12.5516 0.999883 12.4203C0.99878 12.2889 1.02356 12.1587 1.0728 12.0369C1.12204 11.9151 1.19478 11.8043 1.28687 11.7106C1.37896 11.617 1.48859 11.5424 1.60951 11.4911C1.73043 11.4398 1.86026 11.4129 1.9916 11.4117C2.12294 11.4106 2.2532 11.4354 2.37497 11.4847C2.49673 11.5339 2.6076 11.6066 2.70125 11.6987L6.8 15.7237L17.3 5.41124C17.4893 5.22525 17.7447 5.12209 18.0101 5.12443C18.1415 5.12559 18.2714 5.15262 18.3923 5.20398C18.5133 5.25533 18.6229 5.33001 18.715 5.42374C18.8071 5.51747 18.8798 5.62842 18.929 5.75026C18.9782 5.87209 19.003 6.00243 19.0018 6.13383C19.0006 6.26522 18.9736 6.3951 18.9223 6.51605C18.8709 6.637 18.7962 6.74665 18.7025 6.83874H18.7012ZM30.7137 5.42374C30.6217 5.32994 30.5121 5.2552 30.3911 5.2038C30.2702 5.1524 30.1403 5.12535 30.0088 5.12418C29.8774 5.12302 29.7471 5.14778 29.6252 5.19703C29.5034 5.24629 29.3924 5.31908 29.2987 5.41124L18.7987 15.7237L16.445 13.4112C16.2557 13.2254 16.0003 13.1224 15.7351 13.1249C15.4698 13.1273 15.2164 13.2351 15.0306 13.4244C14.8448 13.6137 14.7418 13.869 14.7443 14.1343C14.7467 14.3995 14.8544 14.6529 15.0437 14.8387L18.0975 17.8387C18.2845 18.0227 18.5364 18.1258 18.7987 18.1258C19.0611 18.1258 19.313 18.0227 19.5 17.8387L30.7 6.83874C30.7939 6.74677 30.8687 6.6372 30.9202 6.51629C30.9717 6.39538 30.9989 6.2655 31.0002 6.13409C31.0015 6.00267 30.9768 5.87229 30.9277 5.7504C30.8785 5.62851 30.8058 5.51751 30.7137 5.42374Z" fill="white"/>
</svg>
