<svg width="26" height="26" viewBox="0 0 26 26" fill="none" xmlns="http://www.w3.org/2000/svg">
<path d="M15.8438 13C15.8438 13.5624 15.677 14.1123 15.3645 14.5799C15.052 15.0476 14.6079 15.412 14.0883 15.6273C13.5686 15.8425 12.9968 15.8988 12.4452 15.7891C11.8936 15.6794 11.3869 15.4085 10.9892 15.0108C10.5915 14.6131 10.3206 14.1064 10.2109 13.5548C10.1012 13.0032 10.1575 12.4314 10.3727 11.9117C10.588 11.3921 10.9524 10.948 11.4201 10.6355C11.8878 10.323 12.4376 10.1563 13 10.1563C13.7542 10.1563 14.4775 10.4559 15.0108 10.9892C15.5441 11.5225 15.8438 12.2458 15.8438 13ZM13 7.71875C13.5624 7.71875 14.1123 7.55197 14.5799 7.23949C15.0476 6.92702 15.412 6.48288 15.6273 5.96326C15.8425 5.44363 15.8988 4.87185 15.7891 4.32021C15.6794 3.76858 15.4085 3.26187 15.0108 2.86417C14.6131 2.46646 14.1064 2.19562 13.5548 2.08589C13.0032 1.97617 12.4314 2.03248 11.9117 2.24772C11.3921 2.46296 10.948 2.82745 10.6355 3.2951C10.323 3.76275 10.1563 4.31256 10.1563 4.875C10.1563 5.62921 10.4559 6.35253 10.9892 6.88584C11.5225 7.41914 12.2458 7.71875 13 7.71875ZM13 18.2813C12.4376 18.2813 11.8878 18.448 11.4201 18.7605C10.9524 19.073 10.588 19.5171 10.3727 20.0367C10.1575 20.5564 10.1012 21.1282 10.2109 21.6798C10.3206 22.2314 10.5915 22.7381 10.9892 23.1358C11.3869 23.5335 11.8936 23.8044 12.4452 23.9141C12.9968 24.0238 13.5686 23.9675 14.0883 23.7523C14.6079 23.537 15.052 23.1726 15.3645 22.7049C15.677 22.2373 15.8438 21.6874 15.8438 21.125C15.8438 20.3708 15.5441 19.6475 15.0108 19.1142C14.4775 18.5809 13.7542 18.2813 13 18.2813Z" fill="white"/>
</svg>
