<svg width="24" height="24" viewBox="0 0 24 24" fill="none" xmlns="http://www.w3.org/2000/svg">
<path d="M21.0103 2.9925C19.8156 1.79796 18.1956 1.12649 16.5061 1.12561C14.8167 1.12473 13.196 1.79451 12 2.98781L5.42627 9.48469C5.25143 9.65833 5.1127 9.86486 5.01809 10.0924C4.92348 10.3199 4.87485 10.5639 4.87502 10.8103V17.5313L2.20502 20.2041C1.99367 20.4154 1.87494 20.7021 1.87494 21.0009C1.87494 21.2998 1.99367 21.5865 2.20502 21.7978C2.41636 22.0092 2.703 22.1279 3.00189 22.1279C3.30078 22.1279 3.58742 22.0092 3.79877 21.7978L6.46877 19.125H13.1906C13.4371 19.1257 13.6813 19.0776 13.909 18.9833C14.1367 18.889 14.3434 18.7504 14.5172 18.5756H14.5219L21.0103 12.0131C22.206 10.8166 22.8777 9.19434 22.8777 7.50281C22.8777 5.81129 22.206 4.18898 21.0103 2.9925ZM13.5844 4.58625C14.3326 3.83257 15.3427 3.39652 16.4044 3.36888C17.466 3.34123 18.4975 3.72413 19.2839 4.43785C20.0704 5.15157 20.5512 6.14112 20.6264 7.20047C20.7016 8.25983 20.3653 9.30737 19.6875 10.125H15.4688L18.0488 7.54594C18.2601 7.3346 18.3788 7.04795 18.3788 6.74906C18.3788 6.45018 18.2601 6.16353 18.0488 5.95219C17.8374 5.74085 17.5508 5.62211 17.2519 5.62211C16.953 5.62211 16.6664 5.74085 16.455 5.95219L11.625 10.7813V6.51938L13.5844 4.58625ZM7.12502 10.9688L9.37502 8.745V13.0313L7.12502 15.2813V10.9688ZM13.0313 16.875H8.71877L13.2188 12.375H17.4844L13.0313 16.875Z" fill="#1E1E1E"/>
</svg>
