<svg width="36" height="36" viewBox="0 0 36 36" fill="none" xmlns="http://www.w3.org/2000/svg">
<path d="M24.75 3.375H11.25C9.16211 3.37723 7.16037 4.20764 5.684 5.684C4.20764 7.16037 3.37723 9.16211 3.375 11.25V24.75C3.37723 26.8379 4.20764 28.8396 5.684 30.316C7.16037 31.7924 9.16211 32.6228 11.25 32.625H24.75C26.8379 32.6228 28.8396 31.7924 30.316 30.316C31.7924 28.8396 32.6228 26.8379 32.625 24.75V11.25C32.6228 9.16211 31.7924 7.16037 30.316 5.684C28.8396 4.20764 26.8379 3.37723 24.75 3.375ZM18 24.75C16.665 24.75 15.3599 24.3541 14.2499 23.6124C13.1399 22.8707 12.2747 21.8165 11.7638 20.5831C11.2529 19.3497 11.1192 17.9925 11.3797 16.6831C11.6402 15.3738 12.283 14.171 13.227 13.227C14.171 12.283 15.3738 11.6402 16.6831 11.3797C17.9925 11.1192 19.3497 11.2529 20.5831 11.7638C21.8165 12.2747 22.8707 13.1399 23.6124 14.2499C24.3541 15.3599 24.75 16.665 24.75 18C24.7481 19.7896 24.0364 21.5054 22.7709 22.7709C21.5054 24.0364 19.7896 24.7481 18 24.75ZM26.4375 11.25C26.1037 11.25 25.7775 11.151 25.5 10.9656C25.2225 10.7802 25.0062 10.5166 24.8785 10.2083C24.7507 9.89993 24.7173 9.56063 24.7824 9.23328C24.8475 8.90594 25.0083 8.60526 25.2443 8.36926C25.4803 8.13326 25.7809 7.97254 26.1083 7.90742C26.4356 7.84231 26.7749 7.87573 27.0833 8.00345C27.3916 8.13118 27.6552 8.34747 27.8406 8.62498C28.026 8.90248 28.125 9.22874 28.125 9.5625C28.125 10.0101 27.9472 10.4393 27.6307 10.7557C27.3143 11.0722 26.8851 11.25 26.4375 11.25ZM22.5 18C22.5 18.89 22.2361 19.76 21.7416 20.5001C21.2471 21.2401 20.5443 21.8169 19.7221 22.1575C18.8998 22.4981 17.995 22.5872 17.1221 22.4135C16.2492 22.2399 15.4474 21.8113 14.818 21.182C14.1887 20.5526 13.7601 19.7508 13.5865 18.8779C13.4128 18.005 13.5019 17.1002 13.8425 16.2779C14.1831 15.4557 14.7599 14.7529 15.4999 14.2584C16.24 13.7639 17.11 13.5 18 13.5C19.1935 13.5 20.3381 13.9741 21.182 14.818C22.0259 15.6619 22.5 16.8065 22.5 18Z" fill="#1E1E1E"/>
</svg>
