<svg width="14" height="8" viewBox="0 0 14 8" fill="none" xmlns="http://www.w3.org/2000/svg">
<path d="M13.7307 1.57838L7.64576 7.72866C7.56097 7.81466 7.46021 7.88291 7.34926 7.92947C7.23832 7.97603 7.11937 8 6.99924 8C6.87911 8 6.76016 7.97603 6.64922 7.92947C6.53827 7.88291 6.43751 7.81466 6.35272 7.72866L0.267799 1.57838C0.0963301 1.40507 -2.55508e-09 1.17001 0 0.924911C2.55508e-09 0.679813 0.0963301 0.444754 0.267799 0.271444C0.439267 0.0981335 0.671828 0.000768952 0.914321 0.000768949C1.15681 0.000768947 1.38938 0.0981335 1.56084 0.271444L7 5.76903L12.4392 0.270675C12.6106 0.0973651 12.8432 0 13.0857 0C13.3282 0 13.5607 0.0973651 13.7322 0.270675C13.9037 0.443986 14 0.679045 14 0.924143C14 1.16924 13.9037 1.4043 13.7322 1.57761L13.7307 1.57838Z" fill="#1E1E1E"/>
</svg>
