<svg width="24" height="25" viewBox="0 0 24 25" fill="none" xmlns="http://www.w3.org/2000/svg">
<path d="M19.5 3.875H4.5C4.00272 3.875 3.52581 4.07254 3.17417 4.42417C2.82254 4.77581 2.625 5.25272 2.625 5.75V11C2.625 16.0897 5.0925 19.1769 7.1625 20.8709C9.38531 22.6887 11.61 23.3084 11.7037 23.3356C11.8978 23.3881 12.1022 23.3881 12.2963 23.3356C12.39 23.3094 14.6147 22.6887 16.8375 20.8709C18.9075 19.1769 21.375 16.0897 21.375 11V5.75C21.375 5.25272 21.1775 4.77581 20.8258 4.42417C20.4742 4.07254 19.9973 3.875 19.5 3.875ZM19.125 11C19.125 14.3478 17.8978 17.0647 15.4772 19.0766C14.4396 19.9327 13.2637 20.6058 12 21.0669C10.7362 20.606 9.56023 19.9329 8.52281 19.0766C6.10219 17.0647 4.875 14.3478 4.875 11V6.125H19.125V11ZM7.45406 14.0459C7.34942 13.9413 7.2664 13.8171 7.20977 13.6803C7.15314 13.5436 7.12399 13.3971 7.12399 13.2491C7.12399 13.1011 7.15314 12.9545 7.20977 12.8178C7.2664 12.6811 7.34942 12.5568 7.45406 12.4522C7.55871 12.3475 7.68294 12.2645 7.81967 12.2079C7.9564 12.1513 8.10294 12.1221 8.25094 12.1221C8.39893 12.1221 8.54548 12.1513 8.6822 12.2079C8.81893 12.2645 8.94317 12.3475 9.04781 12.4522L10.5 13.9062L14.9541 9.45125C15.1654 9.23991 15.4521 9.12117 15.7509 9.12117C16.0498 9.12117 16.3365 9.23991 16.5478 9.45125C16.7592 9.66259 16.8779 9.94924 16.8779 10.2481C16.8779 10.547 16.7592 10.8337 16.5478 11.045L11.2978 16.295C11.1933 16.3999 11.0691 16.4831 10.9324 16.5399C10.7956 16.5967 10.649 16.6259 10.5009 16.6259C10.3529 16.6259 10.2063 16.5967 10.0695 16.5399C9.93277 16.4831 9.80858 16.3999 9.70406 16.295L7.45406 14.0459Z" fill="#1E1E1E"/>
</svg>
