<svg width="36" height="36" viewBox="0 0 36 36" fill="none" xmlns="http://www.w3.org/2000/svg">
<path d="M21.4566 20.4231L24.6909 22.0374C24.5376 22.8035 24.1233 23.4927 23.5186 23.9874C22.9139 24.4821 22.1563 24.7516 21.375 24.7501C18.6906 24.7471 16.117 23.6794 14.2188 21.7813C12.3207 19.8831 11.253 17.3095 11.25 14.6251C11.2498 13.8448 11.5199 13.0885 12.0145 12.485C12.5091 11.8814 13.1975 11.4679 13.9627 11.3148L15.577 14.5492L14.2031 16.5939C14.1005 16.7479 14.0374 16.9248 14.0195 17.109C14.0016 17.2933 14.0294 17.4791 14.1005 17.6499C14.9054 19.563 16.4273 21.0849 18.3403 21.8898C18.5117 21.964 18.6989 21.9944 18.885 21.9782C19.0711 21.962 19.2502 21.8997 19.4062 21.797L21.4566 20.4231ZM32.625 18.0001C32.6256 20.5251 31.9724 23.0072 30.7291 25.2048C29.4857 27.4024 27.6946 29.2408 25.53 30.5408C23.3655 31.8408 20.9012 32.5583 18.3771 32.6234C15.8529 32.6885 13.355 32.099 11.1262 30.9123L6.33797 32.5084C5.94153 32.6406 5.5161 32.6598 5.10937 32.5638C4.70263 32.4678 4.33067 32.2604 4.03517 31.9649C3.73966 31.6694 3.5323 31.2975 3.43631 30.8907C3.34032 30.484 3.35951 30.0586 3.49172 29.6621L5.08781 24.8739C4.04458 22.9125 3.4619 20.7392 3.384 18.519C3.30609 16.2988 3.73501 14.09 4.63819 12.0603C5.54137 10.0306 6.89509 8.23334 8.59657 6.80494C10.2981 5.37653 12.3026 4.35453 14.458 3.81649C16.6135 3.27846 18.8632 3.23854 21.0363 3.69976C23.2095 4.16099 25.249 5.11124 27.0001 6.47838C28.7512 7.84552 30.1678 9.59362 31.1425 11.59C32.1171 13.5864 32.6241 15.7785 32.625 18.0001ZM27 21.3751C27.0001 21.1661 26.9421 20.9612 26.8323 20.7833C26.7225 20.6055 26.5653 20.4618 26.3784 20.3682L21.8784 18.1182C21.7013 18.03 21.504 17.99 21.3065 18.0023C21.109 18.0147 20.9182 18.0789 20.7534 18.1885L18.6877 19.5667C17.7394 19.0454 16.959 18.265 16.4377 17.3167L17.8158 15.2509C17.9254 15.0861 17.9897 14.8954 18.002 14.6978C18.0143 14.5003 17.9744 14.303 17.8861 14.1259L15.6361 9.62589C15.5428 9.43755 15.3987 9.2791 15.22 9.1685C15.0413 9.05789 14.8352 8.99956 14.625 9.0001C13.1332 9.0001 11.7024 9.59274 10.6475 10.6476C9.59263 11.7025 9 13.1333 9 14.6251C9.00372 17.906 10.3087 21.0515 12.6287 23.3714C14.9486 25.6914 18.0941 26.9964 21.375 27.0001C22.1137 27.0001 22.8451 26.8546 23.5276 26.5719C24.2101 26.2892 24.8301 25.8749 25.3525 25.3526C25.8748 24.8302 26.2891 24.2102 26.5718 23.5277C26.8545 22.8452 27 22.1138 27 21.3751Z" fill="black"/>
</svg>
