<svg width="16" height="16" viewBox="0 0 16 16" fill="none" xmlns="http://www.w3.org/2000/svg">
<path d="M15.5459 13.954C15.7572 14.1654 15.876 14.452 15.876 14.7509C15.876 15.0498 15.7572 15.3364 15.5459 15.5478C15.3346 15.7591 15.0479 15.8779 14.749 15.8779C14.4501 15.8779 14.1635 15.7591 13.9521 15.5478L7.99996 9.59373L2.0459 15.5459C1.83455 15.7573 1.54791 15.876 1.24902 15.876C0.950136 15.876 0.663491 15.7573 0.452147 15.5459C0.240802 15.3346 0.12207 15.0479 0.12207 14.749C0.12207 14.4502 0.240803 14.1635 0.452147 13.9522L6.40621 7.99998L0.454022 2.04592C0.242677 1.83457 0.123945 1.54793 0.123945 1.24904C0.123945 0.950158 0.242677 0.663513 0.454022 0.452169C0.665366 0.240824 0.95201 0.122092 1.2509 0.122092C1.54978 0.122092 1.83643 0.240824 2.04777 0.452169L7.99996 6.40623L13.954 0.451231C14.1654 0.239887 14.452 0.121155 14.7509 0.121155C15.0498 0.121155 15.3364 0.239887 15.5478 0.451231C15.7591 0.662575 15.8778 0.94922 15.8778 1.24811C15.8778 1.54699 15.7591 1.83364 15.5478 2.04498L9.59371 7.99998L15.5459 13.954Z" fill="white"/>
</svg>